STARTFONT 2.1
COMMENT $Xorg: 6x12.bdf,v 1.3 2000/08/18 15:17:39 xorgcvs Exp $
FONT -Misc-Fixed-Medium-R-SemiCondensed--12-110-75-75-C-60-ISO646.1991-IRV
SIZE 12 75 75
FONTBOUNDINGBOX 6 12 0 -4
STARTPROPERTIES 19
FONTNAME_REGISTRY ""
FOUNDRY "Misc"
FAMILY_NAME "Fixed"
WEIGHT_NAME "Medium"
SLANT "R"
SETWIDTH_NAME "SemiCondensed"
ADD_STYLE_NAME ""
PIXEL_SIZE 12
POINT_SIZE 120
RESOLUTION_X 75
RESOLUTION_Y 75
SPACING "C"
AVERAGE_WIDTH 60
CHARSET_REGISTRY "ISO646.1991"
CHARSET_ENCODING "IRV"
FONT_ASCENT 8
FONT_DESCENT 4
DEFAULT_CHAR 32
COPYRIGHT "Public domain terminal emulator font.  Share and enjoy."
ENDPROPERTIES
CHARS 127
STARTCHAR C001
ENCODING 1
SWIDTH 545 0
DWIDTH 6 0
BBX 6 12 0 -4
BITMAP
f8
f8
00
00
70
08
78
88
78
00
00
00
ENDCHAR
STARTCHAR C002
ENCODING 2
SWIDTH 545 0
DWIDTH 6 0
BBX 6 12 0 -4
BITMAP
f8
f8
80
80
f0
88
88
88
f0
00
00
00
ENDCHAR
STARTCHAR C003
ENCODING 3
SWIDTH 545 0
DWIDTH 6 0
BBX 6 12 0 -4
BITMAP
f8
f8
00
00
70
88
80
80
78
00
00
00
ENDCHAR
STARTCHAR C004
ENCODING 4
SWIDTH 545 0
DWIDTH 6 0
BBX 6 12 0 -4
BITMAP
f8
f8
08
08
78
88
88
88
78
00
00
00
ENDCHAR
STARTCHAR C005
ENCODING 5
SWIDTH 545 0
DWIDTH 6 0
BBX 6 12 0 -4
BITMAP
f8
f8
00
00
70
88
f0
80
70
00
00
00
ENDCHAR
STARTCHAR C006
ENCODING 6
SWIDTH 545 0
DWIDTH 6 0
BBX 6 12 0 -4
BITMAP
f8
f8
30
48
40
e0
40
40
40
00
00
00
ENDCHAR
STARTCHAR C007
ENCODING 7
SWIDTH 545 0
DWIDTH 6 0
BBX 6 12 0 -4
BITMAP
f8
f8
00
70
88
88
88
78
08
70
00
00
ENDCHAR
STARTCHAR C010
ENCODING 8
SWIDTH 545 0
DWIDTH 6 0
BBX 6 12 0 -4
BITMAP
f8
f8
80
80
f0
88
88
88
88
00
00
00
ENDCHAR
STARTCHAR C011
ENCODING 9
SWIDTH 545 0
DWIDTH 6 0
BBX 6 12 0 -4
BITMAP
f8
f8
00
20
00
20
20
20
20
00
00
00
ENDCHAR
STARTCHAR C012
ENCODING 10
SWIDTH 545 0
DWIDTH 6 0
BBX 6 12 0 -4
BITMAP
f8
f8
00
00
08
08
08
08
88
70
00
00
ENDCHAR
STARTCHAR C013
ENCODING 11
SWIDTH 545 0
DWIDTH 6 0
BBX 6 12 0 -4
BITMAP
f8
f8
80
80
88
90
e0
90
88
00
00
00
ENDCHAR
STARTCHAR C014
ENCODING 12
SWIDTH 545 0
DWIDTH 6 0
BBX 6 12 0 -4
BITMAP
f8
f8
20
20
20
20
20
20
20
00
00
00
ENDCHAR
STARTCHAR C015
ENCODING 13
SWIDTH 545 0
DWIDTH 6 0
BBX 6 12 0 -4
BITMAP
f8
f8
00
00
d0
a8
a8
a8
a8
00
00
00
ENDCHAR
STARTCHAR C016
ENCODING 14
SWIDTH 545 0
DWIDTH 6 0
BBX 6 12 0 -4
BITMAP
f8
f8
00
00
b0
c8
88
88
88
00
00
00
ENDCHAR
STARTCHAR C017
ENCODING 15
SWIDTH 545 0
DWIDTH 6 0
BBX 6 12 0 -4
BITMAP
f8
f8
00
00
70
88
88
88
70
00
00
00
ENDCHAR
STARTCHAR C020
ENCODING 16
SWIDTH 545 0
DWIDTH 6 0
BBX 6 12 0 -4
BITMAP
f8
f8
00
f0
88
88
88
f0
80
80
00
00
ENDCHAR
STARTCHAR C021
ENCODING 17
SWIDTH 545 0
DWIDTH 6 0
BBX 6 12 0 -4
BITMAP
f8
f8
00
70
88
88
88
78
08
08
00
00
ENDCHAR
STARTCHAR C022
ENCODING 18
SWIDTH 545 0
DWIDTH 6 0
BBX 6 12 0 -4
BITMAP
f8
f8
00
00
b0
c8
80
80
80
00
00
00
ENDCHAR
STARTCHAR C023
ENCODING 19
SWIDTH 545 0
DWIDTH 6 0
BBX 6 12 0 -4
BITMAP
f8
f8
00
00
78
80
70
08
f0
00
00
00
ENDCHAR
STARTCHAR C024
ENCODING 20
SWIDTH 545 0
DWIDTH 6 0
BBX 6 12 0 -4
BITMAP
f8
f8
20
20
f8
20
20
20
18
00
00
00
ENDCHAR
STARTCHAR C025
ENCODING 21
SWIDTH 545 0
DWIDTH 6 0
BBX 6 12 0 -4
BITMAP
f8
f8
00
00
88
88
88
88
70
00
00
00
ENDCHAR
STARTCHAR C026
ENCODING 22
SWIDTH 545 0
DWIDTH 6 0
BBX 6 12 0 -4
BITMAP
f8
f8
00
00
88
88
88
50
20
00
00
00
ENDCHAR
STARTCHAR C027
ENCODING 23
SWIDTH 545 0
DWIDTH 6 0
BBX 6 12 0 -4
BITMAP
f8
f8
00
00
88
88
a8
a8
50
00
00
00
ENDCHAR
STARTCHAR C030
ENCODING 24
SWIDTH 545 0
DWIDTH 6 0
BBX 6 12 0 -4
BITMAP
f8
f8
00
00
88
50
20
50
88
00
00
00
ENDCHAR
STARTCHAR C031
ENCODING 25
SWIDTH 545 0
DWIDTH 6 0
BBX 6 12 0 -4
BITMAP
f8
f8
00
00
88
88
88
50
20
40
00
00
ENDCHAR
STARTCHAR C032
ENCODING 26
SWIDTH 545 0
DWIDTH 6 0
BBX 6 12 0 -4
BITMAP
f8
f8
00
00
f8
10
70
40
f8
00
00
00
ENDCHAR
STARTCHAR C033
ENCODING 27
SWIDTH 545 0
DWIDTH 6 0
BBX 6 12 0 -4
BITMAP
00
20
20
50
88
50
20
20
00
00
00
00
ENDCHAR
STARTCHAR C034
ENCODING 28
SWIDTH 545 0
DWIDTH 6 0
BBX 6 12 0 -4
BITMAP
f8
f8
00
80
40
20
10
08
00
00
00
00
ENDCHAR
STARTCHAR C035
ENCODING 29
SWIDTH 545 0
DWIDTH 6 0
BBX 6 12 0 -4
BITMAP
f8
f8
00
e0
20
20
20
20
e0
00
00
00
ENDCHAR
STARTCHAR C036
ENCODING 30
SWIDTH 545 0
DWIDTH 6 0
BBX 6 12 0 -4
BITMAP
f8
f8
00
20
50
88
00
00
00
00
00
00
ENDCHAR
STARTCHAR C037
ENCODING 31
SWIDTH 545 0
DWIDTH 6 0
BBX 6 12 0 -4
BITMAP
f8
f8
00
00
00
00
00
00
00
f8
00
00
ENDCHAR
STARTCHAR C040
ENCODING 32
SWIDTH 545 0
DWIDTH 6 0
BBX 6 12 0 -4
BITMAP
00
00
00
00
00
00
00
00
00
00
00
00
ENDCHAR
STARTCHAR !
ENCODING 33
SWIDTH 545 0
DWIDTH 6 0
BBX 6 12 0 -4
BITMAP
00
20
20
20
20
20
00
20
00
00
00
00
ENDCHAR
STARTCHAR "
ENCODING 34
SWIDTH 545 0
DWIDTH 6 0
BBX 6 12 0 -4
BITMAP
50
50
50
00
00
00
00
00
00
00
00
00
ENDCHAR
STARTCHAR #
ENCODING 35
SWIDTH 545 0
DWIDTH 6 0
BBX 6 12 0 -4
BITMAP
00
00
50
f8
50
50
f8
50
00
00
00
00
ENDCHAR
STARTCHAR $
ENCODING 36
SWIDTH 545 0
DWIDTH 6 0
BBX 6 12 0 -4
BITMAP
20
70
a8
a0
70
28
a8
70
20
00
00
00
ENDCHAR
STARTCHAR %
ENCODING 37
SWIDTH 545 0
DWIDTH 6 0
BBX 6 12 0 -4
BITMAP
00
f8
c8
10
20
40
98
98
00
00
00
00
ENDCHAR
STARTCHAR &
ENCODING 38
SWIDTH 545 0
DWIDTH 6 0
BBX 6 12 0 -4
BITMAP
00
40
a0
a0
40
a8
90
68
00
00
00
00
ENDCHAR
STARTCHAR '
ENCODING 39
SWIDTH 545 0
DWIDTH 6 0
BBX 6 12 0 -4
BITMAP
60
60
c0
00
00
00
00
00
00
00
00
00
ENDCHAR
STARTCHAR (
ENCODING 40
SWIDTH 545 0
DWIDTH 6 0
BBX 6 12 0 -4
BITMAP
00
08
10
20
20
20
10
08
00
00
00
00
ENDCHAR
STARTCHAR )
ENCODING 41
SWIDTH 545 0
DWIDTH 6 0
BBX 6 12 0 -4
BITMAP
00
80
40
20
20
20
40
80
00
00
00
00
ENDCHAR
STARTCHAR *
ENCODING 42
SWIDTH 545 0
DWIDTH 6 0
BBX 6 12 0 -4
BITMAP
00
20
a8
70
20
70
a8
20
00
00
00
00
ENDCHAR
STARTCHAR +
ENCODING 43
SWIDTH 545 0
DWIDTH 6 0
BBX 6 12 0 -4
BITMAP
00
00
20
20
f8
20
20
00
00
00
00
00
ENDCHAR
STARTCHAR ,
ENCODING 44
SWIDTH 545 0
DWIDTH 6 0
BBX 6 12 0 -4
BITMAP
00
00
00
00
00
00
60
60
c0
00
00
00
ENDCHAR
STARTCHAR -
ENCODING 45
SWIDTH 545 0
DWIDTH 6 0
BBX 6 12 0 -4
BITMAP
00
00
00
00
f8
00
00
00
00
00
00
00
ENDCHAR
STARTCHAR .
ENCODING 46
SWIDTH 545 0
DWIDTH 6 0
BBX 6 12 0 -4
BITMAP
00
00
00
00
00
00
60
60
00
00
00
00
ENDCHAR
STARTCHAR /
ENCODING 47
SWIDTH 545 0
DWIDTH 6 0
BBX 6 12 0 -4
BITMAP
00
00
08
10
20
40
80
00
00
00
00
00
ENDCHAR
STARTCHAR 0
ENCODING 48
SWIDTH 545 0
DWIDTH 6 0
BBX 6 12 0 -4
BITMAP
00
70
88
98
a8
c8
88
70
00
00
00
00
ENDCHAR
STARTCHAR 1
ENCODING 49
SWIDTH 545 0
DWIDTH 6 0
BBX 6 12 0 -4
BITMAP
00
20
60
20
20
20
20
70
00
00
00
00
ENDCHAR
STARTCHAR 2
ENCODING 50
SWIDTH 545 0
DWIDTH 6 0
BBX 6 12 0 -4
BITMAP
00
70
88
08
10
20
40
f8
00
00
00
00
ENDCHAR
STARTCHAR 3
ENCODING 51
SWIDTH 545 0
DWIDTH 6 0
BBX 6 12 0 -4
BITMAP
00
70
88
08
30
08
88
70
00
00
00
00
ENDCHAR
STARTCHAR 4
ENCODING 52
SWIDTH 545 0
DWIDTH 6 0
BBX 6 12 0 -4
BITMAP
00
10
30
50
90
f8
10
10
00
00
00
00
ENDCHAR
STARTCHAR 5
ENCODING 53
SWIDTH 545 0
DWIDTH 6 0
BBX 6 12 0 -4
BITMAP
00
f8
80
f0
08
08
88
70
00
00
00
00
ENDCHAR
STARTCHAR 6
ENCODING 54
SWIDTH 545 0
DWIDTH 6 0
BBX 6 12 0 -4
BITMAP
00
30
40
80
f0
88
88
70
00
00
00
00
ENDCHAR
STARTCHAR 7
ENCODING 55
SWIDTH 545 0
DWIDTH 6 0
BBX 6 12 0 -4
BITMAP
00
f8
08
10
10
20
20
20
00
00
00
00
ENDCHAR
STARTCHAR 8
ENCODING 56
SWIDTH 545 0
DWIDTH 6 0
BBX 6 12 0 -4
BITMAP
00
70
88
88
70
88
88
70
00
00
00
00
ENDCHAR
STARTCHAR 9
ENCODING 57
SWIDTH 545 0
DWIDTH 6 0
BBX 6 12 0 -4
BITMAP
00
70
88
88
78
08
10
60
00
00
00
00
ENDCHAR
STARTCHAR :
ENCODING 58
SWIDTH 545 0
DWIDTH 6 0
BBX 6 12 0 -4
BITMAP
00
00
00
60
60
00
60
60
00
00
00
00
ENDCHAR
STARTCHAR ;
ENCODING 59
SWIDTH 545 0
DWIDTH 6 0
BBX 6 12 0 -4
BITMAP
00
00
00
60
60
00
60
60
c0
00
00
00
ENDCHAR
STARTCHAR <
ENCODING 60
SWIDTH 545 0
DWIDTH 6 0
BBX 6 12 0 -4
BITMAP
00
00
10
20
40
20
10
00
00
00
00
00
ENDCHAR
STARTCHAR =
ENCODING 61
SWIDTH 545 0
DWIDTH 6 0
BBX 6 12 0 -4
BITMAP
00
00
00
f8
00
f8
00
00
00
00
00
00
ENDCHAR
STARTCHAR >
ENCODING 62
SWIDTH 545 0
DWIDTH 6 0
BBX 6 12 0 -4
BITMAP
00
00
40
20
10
20
40
00
00
00
00
00
ENDCHAR
STARTCHAR ?
ENCODING 63
SWIDTH 545 0
DWIDTH 6 0
BBX 6 12 0 -4
BITMAP
00
70
88
10
20
20
00
20
00
00
00
00
ENDCHAR
STARTCHAR @
ENCODING 64
SWIDTH 545 0
DWIDTH 6 0
BBX 6 12 0 -4
BITMAP
00
70
88
b8
a8
b8
80
70
00
00
00
00
ENDCHAR
STARTCHAR A
ENCODING 65
SWIDTH 545 0
DWIDTH 6 0
BBX 6 12 0 -4
BITMAP
00
70
88
88
f8
88
88
88
00
00
00
00
ENDCHAR
STARTCHAR B
ENCODING 66
SWIDTH 545 0
DWIDTH 6 0
BBX 6 12 0 -4
BITMAP
00
f0
88
88
f0
88
88
f0
00
00
00
00
ENDCHAR
STARTCHAR C
ENCODING 67
SWIDTH 545 0
DWIDTH 6 0
BBX 6 12 0 -4
BITMAP
00
70
88
80
80
80
88
70
00
00
00
00
ENDCHAR
STARTCHAR D
ENCODING 68
SWIDTH 545 0
DWIDTH 6 0
BBX 6 12 0 -4
BITMAP
00
f0
48
48
48
48
48
f0
00
00
00
00
ENDCHAR
STARTCHAR E
ENCODING 69
SWIDTH 545 0
DWIDTH 6 0
BBX 6 12 0 -4
BITMAP
00
f8
80
80
f0
80
80
f8
00
00
00
00
ENDCHAR
STARTCHAR F
ENCODING 70
SWIDTH 545 0
DWIDTH 6 0
BBX 6 12 0 -4
BITMAP
00
f8
80
80
f0
80
80
80
00
00
00
00
ENDCHAR
STARTCHAR G
ENCODING 71
SWIDTH 545 0
DWIDTH 6 0
BBX 6 12 0 -4
BITMAP
00
70
88
80
80
98
88
70
00
00
00
00
ENDCHAR
STARTCHAR H
ENCODING 72
SWIDTH 545 0
DWIDTH 6 0
BBX 6 12 0 -4
BITMAP
00
88
88
88
f8
88
88
88
00
00
00
00
ENDCHAR
STARTCHAR I
ENCODING 73
SWIDTH 545 0
DWIDTH 6 0
BBX 6 12 0 -4
BITMAP
00
70
20
20
20
20
20
70
00
00
00
00
ENDCHAR
STARTCHAR J
ENCODING 74
SWIDTH 545 0
DWIDTH 6 0
BBX 6 12 0 -4
BITMAP
00
08
08
08
08
08
88
70
00
00
00
00
ENDCHAR
STARTCHAR K
ENCODING 75
SWIDTH 545 0
DWIDTH 6 0
BBX 6 12 0 -4
BITMAP
00
88
90
a0
c0
a0
90
88
00
00
00
00
ENDCHAR
STARTCHAR L
ENCODING 76
SWIDTH 545 0
DWIDTH 6 0
BBX 6 12 0 -4
BITMAP
00
80
80
80
80
80
80
f8
00
00
00
00
ENDCHAR
STARTCHAR M
ENCODING 77
SWIDTH 545 0
DWIDTH 6 0
BBX 6 12 0 -4
BITMAP
00
88
d8
a8
88
88
88
88
00
00
00
00
ENDCHAR
STARTCHAR N
ENCODING 78
SWIDTH 545 0
DWIDTH 6 0
BBX 6 12 0 -4
BITMAP
00
88
88
c8
a8
98
88
88
00
00
00
00
ENDCHAR
STARTCHAR O
ENCODING 79
SWIDTH 545 0
DWIDTH 6 0
BBX 6 12 0 -4
BITMAP
00
70
88
88
88
88
88
70
00
00
00
00
ENDCHAR
STARTCHAR P
ENCODING 80
SWIDTH 545 0
DWIDTH 6 0
BBX 6 12 0 -4
BITMAP
00
f0
88
88
f0
80
80
80
00
00
00
00
ENDCHAR
STARTCHAR Q
ENCODING 81
SWIDTH 545 0
DWIDTH 6 0
BBX 6 12 0 -4
BITMAP
00
70
88
88
88
a8
90
68
00
00
00
00
ENDCHAR
STARTCHAR R
ENCODING 82
SWIDTH 545 0
DWIDTH 6 0
BBX 6 12 0 -4
BITMAP
00
f0
88
88
f0
a0
90
88
00
00
00
00
ENDCHAR
STARTCHAR S
ENCODING 83
SWIDTH 545 0
DWIDTH 6 0
BBX 6 12 0 -4
BITMAP
00
70
88
80
70
08
88
70
00
00
00
00
ENDCHAR
STARTCHAR T
ENCODING 84
SWIDTH 545 0
DWIDTH 6 0
BBX 6 12 0 -4
BITMAP
00
f8
20
20
20
20
20
20
00
00
00
00
ENDCHAR
STARTCHAR U
ENCODING 85
SWIDTH 545 0
DWIDTH 6 0
BBX 6 12 0 -4
BITMAP
00
88
88
88
88
88
88
70
00
00
00
00
ENDCHAR
STARTCHAR V
ENCODING 86
SWIDTH 545 0
DWIDTH 6 0
BBX 6 12 0 -4
BITMAP
00
88
88
88
88
50
50
20
00
00
00
00
ENDCHAR
STARTCHAR W
ENCODING 87
SWIDTH 545 0
DWIDTH 6 0
BBX 6 12 0 -4
BITMAP
00
88
88
88
88
a8
d8
88
00
00
00
00
ENDCHAR
STARTCHAR X
ENCODING 88
SWIDTH 545 0
DWIDTH 6 0
BBX 6 12 0 -4
BITMAP
00
88
88
50
20
50
88
88
00
00
00
00
ENDCHAR
STARTCHAR Y
ENCODING 89
SWIDTH 545 0
DWIDTH 6 0
BBX 6 12 0 -4
BITMAP
00
88
88
50
20
20
20
20
00
00
00
00
ENDCHAR
STARTCHAR Z
ENCODING 90
SWIDTH 545 0
DWIDTH 6 0
BBX 6 12 0 -4
BITMAP
00
f8
08
10
f8
40
80
f8
00
00
00
00
ENDCHAR
STARTCHAR [
ENCODING 91
SWIDTH 545 0
DWIDTH 6 0
BBX 6 12 0 -4
BITMAP
38
20
20
20
20
20
20
20
38
00
00
00
ENDCHAR
STARTCHAR \
ENCODING 92
SWIDTH 545 0
DWIDTH 6 0
BBX 6 12 0 -4
BITMAP
00
00
80
40
20
10
08
00
00
00
00
00
ENDCHAR
STARTCHAR ]
ENCODING 93
SWIDTH 545 0
DWIDTH 6 0
BBX 6 12 0 -4
BITMAP
e0
20
20
20
20
20
20
20
e0
00
00
00
ENDCHAR
STARTCHAR ^
ENCODING 94
SWIDTH 545 0
DWIDTH 6 0
BBX 6 12 0 -4
BITMAP
20
50
88
00
00
00
00
00
00
00
00
00
ENDCHAR
STARTCHAR _
ENCODING 95
SWIDTH 545 0
DWIDTH 6 0
BBX 6 12 0 -4
BITMAP
00
00
00
00
00
00
00
00
00
f8
00
00
ENDCHAR
STARTCHAR `
ENCODING 96
SWIDTH 545 0
DWIDTH 6 0
BBX 6 12 0 -4
BITMAP
30
30
18
00
00
00
00
00
00
00
00
00
ENDCHAR
STARTCHAR a
ENCODING 97
SWIDTH 545 0
DWIDTH 6 0
BBX 6 12 0 -4
BITMAP
00
00
00
70
08
78
88
78
00
00
00
00
ENDCHAR
STARTCHAR b
ENCODING 98
SWIDTH 545 0
DWIDTH 6 0
BBX 6 12 0 -4
BITMAP
00
80
80
f0
88
88
88
f0
00
00
00
00
ENDCHAR
STARTCHAR c
ENCODING 99
SWIDTH 545 0
DWIDTH 6 0
BBX 6 12 0 -4
BITMAP
00
00
00
70
88
80
80
78
00
00
00
00
ENDCHAR
STARTCHAR d
ENCODING 100
SWIDTH 545 0
DWIDTH 6 0
BBX 6 12 0 -4
BITMAP
00
08
08
78
88
88
88
78
00
00
00
00
ENDCHAR
STARTCHAR e
ENCODING 101
SWIDTH 545 0
DWIDTH 6 0
BBX 6 12 0 -4
BITMAP
00
00
00
70
88
f0
80
70
00
00
00
00
ENDCHAR
STARTCHAR f
ENCODING 102
SWIDTH 545 0
DWIDTH 6 0
BBX 6 12 0 -4
BITMAP
00
30
48
40
e0
40
40
40
00
00
00
00
ENDCHAR
STARTCHAR g
ENCODING 103
SWIDTH 545 0
DWIDTH 6 0
BBX 6 12 0 -4
BITMAP
00
00
00
70
88
88
88
78
08
70
00
00
ENDCHAR
STARTCHAR h
ENCODING 104
SWIDTH 545 0
DWIDTH 6 0
BBX 6 12 0 -4
BITMAP
00
80
80
f0
88
88
88
88
00
00
00
00
ENDCHAR
STARTCHAR i
ENCODING 105
SWIDTH 545 0
DWIDTH 6 0
BBX 6 12 0 -4
BITMAP
00
00
20
00
20
20
20
20
00
00
00
00
ENDCHAR
STARTCHAR j
ENCODING 106
SWIDTH 545 0
DWIDTH 6 0
BBX 6 12 0 -4
BITMAP
00
00
08
00
08
08
08
08
88
70
00
00
ENDCHAR
STARTCHAR k
ENCODING 107
SWIDTH 545 0
DWIDTH 6 0
BBX 6 12 0 -4
BITMAP
00
80
80
88
90
e0
90
88
00
00
00
00
ENDCHAR
STARTCHAR l
ENCODING 108
SWIDTH 545 0
DWIDTH 6 0
BBX 6 12 0 -4
BITMAP
00
20
20
20
20
20
20
20
00
00
00
00
ENDCHAR
STARTCHAR m
ENCODING 109
SWIDTH 545 0
DWIDTH 6 0
BBX 6 12 0 -4
BITMAP
00
00
00
d0
a8
a8
a8
a8
00
00
00
00
ENDCHAR
STARTCHAR n
ENCODING 110
SWIDTH 545 0
DWIDTH 6 0
BBX 6 12 0 -4
BITMAP
00
00
00
b0
c8
88
88
88
00
00
00
00
ENDCHAR
STARTCHAR o
ENCODING 111
SWIDTH 545 0
DWIDTH 6 0
BBX 6 12 0 -4
BITMAP
00
00
00
70
88
88
88
70
00
00
00
00
ENDCHAR
STARTCHAR p
ENCODING 112
SWIDTH 545 0
DWIDTH 6 0
BBX 6 12 0 -4
BITMAP
00
00
00
f0
88
88
88
f0
80
80
00
00
ENDCHAR
STARTCHAR q
ENCODING 113
SWIDTH 545 0
DWIDTH 6 0
BBX 6 12 0 -4
BITMAP
00
00
00
70
88
88
88
78
08
08
00
00
ENDCHAR
STARTCHAR r
ENCODING 114
SWIDTH 545 0
DWIDTH 6 0
BBX 6 12 0 -4
BITMAP
00
00
00
b0
c8
80
80
80
00
00
00
00
ENDCHAR
STARTCHAR s
ENCODING 115
SWIDTH 545 0
DWIDTH 6 0
BBX 6 12 0 -4
BITMAP
00
00
00
78
80
70
08
f0
00
00
00
00
ENDCHAR
STARTCHAR t
ENCODING 116
SWIDTH 545 0
DWIDTH 6 0
BBX 6 12 0 -4
BITMAP
00
20
20
f8
20
20
20
18
00
00
00
00
ENDCHAR
STARTCHAR u
ENCODING 117
SWIDTH 545 0
DWIDTH 6 0
BBX 6 12 0 -4
BITMAP
00
00
00
88
88
88
88
70
00
00
00
00
ENDCHAR
STARTCHAR v
ENCODING 118
SWIDTH 545 0
DWIDTH 6 0
BBX 6 12 0 -4
BITMAP
00
00
00
88
88
88
50
20
00
00
00
00
ENDCHAR
STARTCHAR w
ENCODING 119
SWIDTH 545 0
DWIDTH 6 0
BBX 6 12 0 -4
BITMAP
00
00
00
88
88
a8
a8
50
00
00
00
00
ENDCHAR
STARTCHAR x
ENCODING 120
SWIDTH 545 0
DWIDTH 6 0
BBX 6 12 0 -4
BITMAP
00
00
00
88
50
20
50
88
00
00
00
00
ENDCHAR
STARTCHAR y
ENCODING 121
SWIDTH 545 0
DWIDTH 6 0
BBX 6 12 0 -4
BITMAP
00
00
00
88
88
88
50
20
40
80
00
00
ENDCHAR
STARTCHAR z
ENCODING 122
SWIDTH 545 0
DWIDTH 6 0
BBX 6 12 0 -4
BITMAP
00
00
00
f8
10
70
40
f8
00
00
00
00
ENDCHAR
STARTCHAR {
ENCODING 123
SWIDTH 545 0
DWIDTH 6 0
BBX 6 12 0 -4
BITMAP
08
10
10
10
20
10
10
10
08
00
00
00
ENDCHAR
STARTCHAR |
ENCODING 124
SWIDTH 545 0
DWIDTH 6 0
BBX 6 12 0 -4
BITMAP
20
20
20
20
20
20
20
20
20
20
00
00
ENDCHAR
STARTCHAR }
ENCODING 125
SWIDTH 545 0
DWIDTH 6 0
BBX 6 12 0 -4
BITMAP
80
40
40
40
20
40
40
40
80
00
00
00
ENDCHAR
STARTCHAR ~
ENCODING 126
SWIDTH 545 0
DWIDTH 6 0
BBX 6 12 0 -4
BITMAP
68
b0
00
00
00
00
00
00
00
00
00
00
ENDCHAR
STARTCHAR C177
ENCODING 127
SWIDTH 545 0
DWIDTH 6 0
BBX 6 12 0 -4
BITMAP
f8
f8
f8
f8
f8
f8
f8
f8
f8
00
00
00
ENDCHAR
ENDFONT
